<svg width="359" height="368" viewBox="0 0 359 368" fill="none" xmlns="http://www.w3.org/2000/svg">
<g clip-path="url(#clip0_23_9)">
<rect width="359" height="368" rx="179.5" fill="#3D3D3D"/>
<path d="M145.015 222.25C134.969 213.193 126.805 202.246 120.99 190.034C115.175 177.821 111.822 164.583 111.122 151.075C110.423 137.567 112.391 124.054 116.914 111.306C121.437 98.5588 128.427 86.8271 137.484 76.7809C146.541 66.7348 157.489 58.5709 169.701 52.7555C181.913 46.9401 195.151 43.587 208.659 42.8877C222.167 42.1884 235.681 44.1565 248.428 48.6797C261.176 53.203 272.907 60.1927 282.953 69.2498L213.984 145.75L145.015 222.25Z" fill="#FFC607"/>
<path d="M76.0464 288.75C86.0926 297.807 97.8243 304.797 110.572 309.32C123.319 313.844 136.833 315.812 150.341 315.112C163.849 314.413 177.087 311.06 189.299 305.244C201.511 299.429 212.458 291.265 221.516 281.219C230.573 271.173 237.562 259.441 242.086 246.694C246.609 233.946 248.577 220.433 247.878 206.925C247.178 193.417 243.825 180.179 238.01 167.966C232.194 155.754 224.031 144.807 213.985 135.75L145.015 212.25L76.0464 288.75Z" fill="#FFC607"/>
<circle cx="185.5" cy="173.5" r="18.5" fill="#3D3D3D"/>
</g>
<defs>
<clipPath id="clip0_23_9">
<rect width="359" height="368" rx="179.5" fill="white"/>
</clipPath>
</defs>
</svg>
