<svg width="237" height="43" viewBox="0 0 237 43" fill="none" xmlns="http://www.w3.org/2000/svg">
<path d="M0.171875 32.7422L7.61328 30.1055C7.61328 31.082 7.88672 31.9414 8.43359 32.6836C8.98047 33.4258 9.52734 33.9141 10.0742 34.1484L10.8945 34.5586V42.1758C7.57422 42.1758 4.74219 40.7305 2.39844 37.8398C0.953125 36.0039 0.210938 34.3047 0.171875 32.7422ZM0.640625 12.2344C0.640625 7.9375 2.47656 4.71484 6.14844 2.56641C7.82812 1.55078 9.41016 1.02344 10.8945 0.984375V8.71875C9.91797 8.99219 9.19531 9.69531 8.72656 10.8281C8.57031 11.1797 8.49219 11.5508 8.49219 11.9414C8.49219 13.543 9.68359 14.9102 12.0664 16.043C12.5742 16.2773 13.3945 16.6289 14.5273 17.0977C16.4023 17.8398 17.7305 18.4453 18.5117 18.9141C21.6758 20.7891 23.7852 22.7031 24.8398 24.6562C25.6211 26.1797 26.0117 27.8789 26.0117 29.7539C26.0117 33.3086 24.6641 36.3555 21.9688 38.8945C19.6641 41.082 17.0469 42.1758 14.1172 42.1758V34.5586C15.6406 34.3633 16.7148 33.5625 17.3398 32.1562C17.6133 31.5312 17.75 30.8477 17.75 30.1055C17.75 28.1133 16.2656 26.4727 13.2969 25.1836C12.75 24.9492 11.8906 24.6172 10.7188 24.1875C9.35156 23.7188 8.39453 23.3477 7.84766 23.0742C4.48828 21.4727 2.33984 19.4023 1.40234 16.8633C0.894531 15.4961 0.640625 13.9531 0.640625 12.2344ZM14.1172 8.71875V0.984375C17.3984 0.984375 20.1523 2.37109 22.3789 5.14453C23.668 6.78516 24.332 8.26953 24.3711 9.59766L16.7539 12.1172C16.7539 10.4766 15.9531 9.36328 14.3516 8.77734C14.1953 8.73828 14.1172 8.71875 14.1172 8.71875ZM29.5273 42V0.984375H37.7891V17.332H40.0742V25.418H37.7891V42H29.5273ZM43.2969 25.418V17.332H45.582V0.984375H53.8438V42H45.582V25.418H43.2969ZM58.4141 30.5742V11.2969C58.4141 9.22656 59.293 7.11719 61.0508 4.96875C63.3945 2.15625 66.3633 0.730469 69.957 0.691406V8.95312C68.3555 8.99219 67.3008 9.89062 66.793 11.6484C66.7148 11.9219 66.6758 12.1172 66.6758 12.2344V30.5742C66.6758 32.1758 67.5547 33.2695 69.3125 33.8555C69.5859 33.9336 69.7812 33.9727 69.8984 33.9727V42.293C67.6719 42.293 65.4453 41.4922 63.2188 39.8906C60.0547 37.5469 58.4531 34.4414 58.4141 30.5742ZM73.1211 42.293V33.9727C73.7461 33.9727 74.4492 33.6406 75.2305 32.9766C75.9727 32.3125 76.3633 31.5117 76.4023 30.5742V12.2344C76.4023 11.5312 76.0703 10.7891 75.4062 10.0078C74.7812 9.34375 74.0195 8.99219 73.1211 8.95312V0.691406C77.0664 0.691406 80.2305 2.39062 82.6133 5.78906C83.9805 7.74219 84.6641 9.57812 84.6641 11.2969V30.5742C84.6641 34.9102 82.7305 38.2305 78.8633 40.5352C76.832 41.707 74.918 42.293 73.1211 42.293ZM89.3516 42V0.984375H97.6133V33.7969H111.383V42H89.3516ZM114.137 42L121.695 7.89844H122.574L126.09 24.3047L122.223 42H114.137ZM126.617 37.0195L128.375 28.9336H130.484L124.273 0.984375H132.418L142.086 42H133.883L132.711 37.0195H126.617ZM144.957 37.8984C144.957 36.1406 145.719 34.832 147.242 33.9727C147.906 33.6211 148.609 33.4453 149.352 33.4453C151.109 33.4453 152.398 34.207 153.219 35.7305C153.57 36.3945 153.746 37.1172 153.746 37.8984C153.746 39.6953 152.965 40.9844 151.402 41.7656C150.738 42.1172 150.055 42.293 149.352 42.293C147.555 42.293 146.266 41.5117 145.484 39.9492C145.133 39.2852 144.957 38.6016 144.957 37.8984ZM157.965 42V0.984375H166.227V42H157.965ZM169.391 42V33.7383C170.25 33.7383 171.051 33.3867 171.793 32.6836C172.34 32.0586 172.633 31.3164 172.672 30.457V12.5273C172.672 11.7461 172.34 10.9844 171.676 10.2422C171.051 9.61719 170.289 9.28516 169.391 9.24609V0.984375C173.727 0.984375 177.008 2.91797 179.234 6.78516C180.367 8.77734 180.934 10.6914 180.934 12.5273V30.457C180.934 34.9102 178.961 38.2305 175.016 40.418C173.062 41.4727 171.188 42 169.391 42ZM185.621 42V0.984375H206.949V9.1875H193.883V17.5078H201.441V25.7695H193.883V33.7383H206.949V42H185.621ZM209.645 0.984375H218.082L227.398 32.7422L224.293 42H221.539L209.645 0.984375ZM224.703 11.8828L227.926 0.984375H236.363C236.324 1.10156 233.922 9.10938 229.156 25.0078H228.57L224.703 11.8828Z" fill="black"/>
</svg>
